# xmcd
#
# Track frame offsets:
#	150
#	18531
#	45534
#	61661
#	78082
#	93798
#	112769
#	132819
#	149280
#	164330
#	181651
#	199259
#	213463
#	232846
#	247156
#	271538
#	286416
#	304415
#	321502
#	338285
#
# Disc length: 4675 seconds
#
# Revision: 1
# Processed by: cddbd v1.5.2PL0 Copyright (c) Steve Scherf et al.
# Submitted via: audiograbber 1.83.01
#
DISCID=09124114
DTITLE=ver - Veronica Album Top 1000 Allertijden 2011 [CD3)
DYEAR=1900
DGENRE=
TTITLE0=Tina Turner - Steamy Windows
TTITLE1=Lionel Richie - Running With The Night
TTITLE2=Amy Mcdonald - Mr Rock N Roll
TTITLE3=Bryan Adams - The Only Thing That Looks Good On Me Is You
TTITLE4=Anastacia - Sick and Tired
TTITLE5=Culture Club - Karma Chameleon
TTITLE6=Earth Wind and Fire - Star
TTITLE7=Gavin Degraw - I Don't Want To Be
TTITLE8=Rick James - Superfreak
TTITLE9=Little River Band - Home On A Monday
TTITLE10=Vanvelzen - Deep
TTITLE11=Electric Light Orchestra - Hold On Tight
TTITLE12=John Farnham - That's Freedom
TTITLE13=Mike Oldfield Feat. Roger Chapman - Shadow On The Wall
TTITLE14=Elton John - Bennie And The Jets (Live)
TTITLE15=Robert Palmer - Everykinda People
TTITLE16=Nickelback - Far Away
TTITLE17=Counting Crows - Big Yellow Taxi
TTITLE18=Paul Carrack - Don't Shed A Tear
TTITLE19=Alan Parsons Project - The Turn Of A Friendly Card
EXTD=pop
EXTT0=
EXTT1=
EXTT2=
EXTT3=
EXTT4=
EXTT5=
EXTT6=
EXTT7=
EXTT8=
EXTT9=
EXTT10=
EXTT11=
EXTT12=
EXTT13=
EXTT14=
EXTT15=
EXTT16=
EXTT17=
EXTT18=
EXTT19=
PLAYORDER=
